<svg xmlns="http://www.w3.org/2000/svg" viewBox="0 0 684.81 406.48"><defs><style>.cls-1{fill:#fff;}.cls-2{fill:#f2ddf7;}.cls-2,.cls-3,.cls-4{fill-rule:evenodd;}.cls-3{fill:#ffeaf8;}.cls-4{fill:#fceeff;}</style></defs><g id="Layer_2" data-name="Layer 2"><g id="OBJECTS"><rect class="cls-1" width="684.81" height="406.48"/><path class="cls-2" d="M19.1,406.48l-3.35-.08-.54,0h-.54A93.11,93.11,0,0,1,22,390.71c.73-1.26,1.53-2.61,2.4-3.93s1.95-2.88,3.15-4.57c1-1.37,2-2.73,2.94-4,1.11-1.48,2.31-2.92,3.48-4.32,1-1.24,2.15-2.47,3.1-3.49l.3-.32c1.06-1.15,2.16-2.34,3.28-3.47,2.39-2.4,5.24-5.19,8.28-7.77,2.63-2.24,5.39-4.38,8.2-6.37,1.17-.83,2.42-1.61,3.63-2.36l.92-.58c1.43-.89,2.93-1.75,4.39-2.58l.36-.2c1.57-.9,3.18-1.73,4.7-2.5s3.39-1.71,5.18-2.56c3.41-1.62,6.85-3.16,10.2-4.58,2.83-1.19,5.93-2.38,9.74-3.75L107,329.5c3.69-1.34,7-2.55,10.37-3.92,3.07-1.25,6.15-2.6,9.13-3.9l.3-.14.44-.19c1.51-.67,3.07-1.36,4.57-2.09,1.82-.89,3.64-1.87,5.42-2.9s3.54-2.16,5.31-3.35c.63-.42,1.25-.89,1.85-1.34l.58-.43,1.94-1.49.48-.37-.2.16c2.28-1.81,5.27-4.21,8.14-6.77,2.58-2.3,5.16-4.72,7.87-7.41,2.35-2.39,4.61-4.87,6.91-7.42,2.65-2.93,4.76-5.32,6.63-7.52,1.31-1.54,2.62-3.11,3.88-4.63q1.41-1.71,2.83-3.4c2-2.42,4.11-4.83,6.17-7.15C194.18,260,199,254.89,204,250c2.78-2.75,5.39-5.15,8-7.34,1.19-1,2.44-2,3.71-3,1.49-1.15,2.95-2.26,4.48-3.32,2.56-1.78,5.44-3.61,9.05-5.74,3-1.78,6.22-3.59,9.55-5.4s6.69-3.47,9.95-4.95c2.9-1.32,6-2.58,10.17-4.07,4-1.43,8-2.69,11-3.62,3.26-1,6.68-2,10.48-3S288.1,207.7,292,207c3.28-.62,6.84-1.23,11.2-1.94,4.54-.73,9.17-1.45,13.64-2.14,8.45-1.31,17.19-2.66,25.74-4.2,3.93-.72,7.53-1.44,11-2.2,3.13-.68,6.34-1.52,9.79-2.54a170.94,170.94,0,0,0,17.18-6.39c3.73-1.67,6.52-3.05,9.06-4.48.84-.5,1.94-1.17,3-1.89s2.28-1.57,3.47-2.47a190,190,0,0,0,15.59-13.92c2.06-2.07,4.22-4.3,7-7.23,2.64-2.76,5-5.16,7.18-7.33,2.52-2.49,4.64-4.56,6.66-6.51,2.4-2.31,4.6-4.25,6.72-5.94,2.86-2.28,5.86-4.31,8.4-6s5.21-3.43,8-5.13,5.68-3.3,8.59-4.76c3.19-1.61,6.51-3,9.33-4.23,11.22-4.72,23.88-8.52,41-12.32,3.7-.82,7.47-1.63,11.12-2.41l.36-.08.84-.18c3.36-.73,6.82-1.48,10.26-2.13,2.1-.4,4-.75,5.92-1.07,1.66-.28,3.35-.53,5-.77l.92-.14c3.15-.47,6.9-1,10.78-1.23,4.53-.3,8.21-.46,11.58-.49h2.83c2.78,0,5.36,0,7.88.13,4.2.16,8.32.48,11.45.74,1.8.16,3.62.34,5.58.55s3.94.52,5.74.81c3.71.6,7.41,1.43,11,2.23s7.34,1.64,10.92,2.57c6.11,1.58,12.19,3.49,18.08,5.34l2.79.88.67.21c4.16,1.31,8.48,2.66,12.77,3.86,3.11.82,5.7,1.42,8.13,1.91s4.8.87,7.16,1.25l.75.12c2.05.31,4.26.62,6.48.86l1.27.13V404.65H19.89a.19.19,0,0,1,0-.07c-.13.34-.26.68-.4,1l-.33.89H19.1Z"/><path class="cls-3" d="M21.31,327.49a17.94,17.94,0,0,1-3.65-.85c-1.12-.36-2.25-.71-3.32-1.17a12.59,12.59,0,0,1-2.93-1.8,13.43,13.43,0,0,1-3.84-4.75,11.13,11.13,0,0,1-.89-2.82,7.66,7.66,0,0,1,.22-3.59A12.67,12.67,0,0,1,10,307.39a15.16,15.16,0,0,1,5.65-3.86,16.3,16.3,0,0,1,5.66-1l.69,0a3.25,3.25,0,0,1,2.63-.09,2.11,2.11,0,0,1,1.47,1.85A1.54,1.54,0,0,1,26,305c.43,3.68,1.22,7.31,1.81,11,.26,1.64.46,3.28.77,4.91a7.78,7.78,0,0,1,.26,3,4.15,4.15,0,0,1-.91,2,5.1,5.1,0,0,1-2.73,1.45,11.08,11.08,0,0,1-2.39.24A14.78,14.78,0,0,1,21.31,327.49Z"/><path class="cls-3" d="M4.24,258.18a5.43,5.43,0,0,1-2.24-1,4.78,4.78,0,0,1-1.23-1.4,4.84,4.84,0,0,1-.52-1.67,1.11,1.11,0,0,1,0-.17A4.24,4.24,0,0,1,0,252.16a6.07,6.07,0,0,1,1.49-3.23,9.14,9.14,0,0,1,3.41-2.56,7.66,7.66,0,0,1,4.19-.52,6.36,6.36,0,0,1,1,.25,6.37,6.37,0,0,1,3.09,1.19,4.68,4.68,0,0,1,1.76,2.6,5.33,5.33,0,0,1,.12,1.49,4.74,4.74,0,0,1-.35,1.52c-.12.31-.24.62-.38.92a4.12,4.12,0,0,1-1.12,1.53,6.78,6.78,0,0,1-2.31,1.2c-.22.2-.46.38-.7.56a6.73,6.73,0,0,1-1.69.92,6.85,6.85,0,0,1-1.1.29c-.35.06-.69.08-1,.11H6.13A9.06,9.06,0,0,1,4.24,258.18Z"/><path class="cls-4" d="M138.66,175.09a6.38,6.38,0,0,1-1.82-1,8.33,8.33,0,0,1-1.55-1.53,5.18,5.18,0,0,1-.9-2,4.74,4.74,0,0,1,.53-3.3l.12-.51a4.55,4.55,0,0,1,1-1.75,10.52,10.52,0,0,1,1.34-1.23,7.82,7.82,0,0,1,6.06-1.4c.35.07.68.17,1,.27l.31-.12a6.45,6.45,0,0,1,1.92-.34,4.47,4.47,0,0,1,3,1.09,5.12,5.12,0,0,1,1.54,2,8.19,8.19,0,0,1,.41,1.94,4.37,4.37,0,0,1,0,1.35,8.15,8.15,0,0,1-.31,1.07,10.81,10.81,0,0,1-.48,1.18,6.88,6.88,0,0,1-1.08,1.49,8.31,8.31,0,0,1-2,1.67,7.53,7.53,0,0,1-3.87.94l-.38,0-.38.13a9.68,9.68,0,0,1-2.41.44h-.17A6.25,6.25,0,0,1,138.66,175.09Z"/><path class="cls-4" d="M231.68,91.32a4.9,4.9,0,0,1-3-.87,5,5,0,0,1-.7-.68,3.77,3.77,0,0,1-.85-1.66,3.85,3.85,0,0,1-.07-.49,2.58,2.58,0,0,1,0-1,2.77,2.77,0,0,1,.11-.48,4.22,4.22,0,0,1,1.39-1.91,2.88,2.88,0,0,1,.27-.22,7.26,7.26,0,0,1,3.33-1.75,5.33,5.33,0,0,1,2,0,4.34,4.34,0,0,1,1.57.57A3.79,3.79,0,0,1,236.94,84a3.11,3.11,0,0,1,.57,1.69,5.45,5.45,0,0,1-.94,2.89,4.25,4.25,0,0,1-1.09,1.16,7.41,7.41,0,0,1-.68.55,4.26,4.26,0,0,1-1.35.62,4.56,4.56,0,0,1-1.71.41Z"/><path class="cls-4" d="M279.52,111.5a8.72,8.72,0,0,1-2.06-.61,21.44,21.44,0,0,1-5.13.33,16.2,16.2,0,0,1-3.11-.64,21.87,21.87,0,0,1-2.91-1,9.83,9.83,0,0,1-3-2,9.44,9.44,0,0,1-2.14-3.1,7.38,7.38,0,0,1-.5-2.57,7.76,7.76,0,0,1,.58-3.1,9.09,9.09,0,0,1,1.57-2.43,10.73,10.73,0,0,1,2.53-2.18A11.16,11.16,0,0,1,268.17,93a7.8,7.8,0,0,1,2.51-.23l.07,0a13.39,13.39,0,0,1,2.3-.84,15.08,15.08,0,0,1,6.45-.22,34.21,34.21,0,0,1,3.64.81A9.37,9.37,0,0,1,286,93.7a14.13,14.13,0,0,1,2.32,1.3,7.73,7.73,0,0,1,2.7,2.82,5.42,5.42,0,0,1,.49,3.25,2.17,2.17,0,0,1,.65,1.18,3.85,3.85,0,0,1-.92,2.85,26.49,26.49,0,0,1-2,2.41,11.13,11.13,0,0,1-5.19,3.6,12.61,12.61,0,0,1-3.27.49,7.12,7.12,0,0,1-1.23-.1Zm-5.37-4.61a1.21,1.21,0,0,1,0-.19l-.31-.07a8.1,8.1,0,0,1-.88.23l.3,0Z"/><path class="cls-2" d="M0,116.6H0V0H142.22l-.35.49.35-.49h3.32c-.2.3-.4.61-.61.9-.88,1.26-1.83,2.48-2.81,3.66A28.36,28.36,0,0,1,139,7.87c-1.2,1-2.45,2.05-3.71,3s-2.62,2-4,2.88a77.69,77.69,0,0,1-8.49,4.91c-1.44.73-2.89,1.45-4.36,2.12s-3.1,1.36-4.67,2c-3,1.22-6.08,2.4-9.08,3.71-1.55.68-3.07,1.43-4.58,2.2-.89.48-1.76,1-2.63,1.48s-1.78,1.12-2.64,1.7c-.59.43-1.17.86-1.73,1.32s-1.18,1-1.76,1.55c-1.16,1.13-2.26,2.31-3.32,3.54-.53.65-1.06,1.3-1.57,2s-1.11,1.5-1.65,2.26c-1,1.37-1.91,2.78-2.81,4.19s-1.73,2.76-2.54,4.16-1.65,2.9-2.45,4.37-1.53,2.81-2.28,4.23-1.52,2.92-2.31,4.36a48.61,48.61,0,0,1-2.52,4.23c-1,1.38-2,2.66-3.1,3.94-.48.57-1,1.15-1.47,1.69S64.05,75,63.39,75.63c-1.18,1.13-2.46,2.17-3.71,3.21s-2.54,2-3.83,3-2.69,2-4.09,2.9Q47.53,87.52,43.09,90c-1.09.6-2.18,1.2-3.3,1.75L36.33,93.4c-2.29,1.11-4.56,2.26-6.81,3.43s-4.77,2.5-7.1,3.84c-1.22.71-2.44,1.42-3.64,2.18s-2.37,1.54-3.53,2.34-2.08,1.52-3.1,2.32-2,1.65-3,2.52l-1,.94c-.37.35-.73.73-1.1,1.09-.71.71-1.36,1.48-2,2.24l-.89,1.09c-.31.39-.6.8-.9,1.2-.58.77-1.1,1.59-1.63,2.4s-1.1,1.8-1.61,2.72Z"/></g></g></svg>