<svg xmlns="http://www.w3.org/2000/svg" viewBox="0 0 684.81 406.48"><defs><style>.cls-1{fill:#fff;}.cls-2{fill:#f2ddf7;fill-rule:evenodd;}</style></defs><g id="Layer_2" data-name="Layer 2"><g id="OBJECTS"><rect class="cls-1" width="684.81" height="406.48"/><path class="cls-2" d="M0,116.6H0V0H142.22l-.35.49.35-.49h3.32c-.2.3-.4.61-.61.9-.88,1.26-1.83,2.48-2.81,3.66A28.36,28.36,0,0,1,139,7.87c-1.2,1-2.45,2.05-3.71,3s-2.62,2-4,2.88a77.69,77.69,0,0,1-8.49,4.91c-1.44.73-2.89,1.45-4.36,2.12s-3.1,1.36-4.67,2c-3,1.22-6.08,2.4-9.08,3.71-1.55.68-3.07,1.43-4.58,2.2-.89.48-1.76,1-2.63,1.48s-1.78,1.12-2.64,1.7c-.59.43-1.17.86-1.73,1.32s-1.18,1-1.76,1.55c-1.16,1.13-2.26,2.31-3.32,3.54-.53.65-1.06,1.3-1.57,2s-1.11,1.5-1.65,2.26c-1,1.37-1.91,2.78-2.81,4.19s-1.73,2.76-2.54,4.16-1.65,2.9-2.45,4.37-1.53,2.81-2.28,4.23-1.52,2.92-2.31,4.36a48.61,48.61,0,0,1-2.52,4.23c-1,1.38-2,2.66-3.1,3.94-.48.57-1,1.15-1.47,1.69S64.05,75,63.39,75.63c-1.18,1.13-2.46,2.17-3.71,3.21s-2.54,2-3.83,3-2.69,2-4.09,2.9Q47.53,87.52,43.09,90c-1.09.6-2.18,1.2-3.3,1.75L36.33,93.4c-2.29,1.11-4.56,2.26-6.81,3.43s-4.77,2.5-7.1,3.84c-1.22.71-2.44,1.42-3.64,2.18s-2.37,1.54-3.53,2.34-2.08,1.52-3.1,2.32-2,1.65-3,2.52l-1,.94c-.37.35-.73.73-1.1,1.09-.71.71-1.36,1.48-2,2.24l-.89,1.09c-.31.39-.6.8-.9,1.2-.58.77-1.1,1.59-1.63,2.4s-1.1,1.8-1.61,2.72Z"/></g></g></svg>