<svg xmlns="http://www.w3.org/2000/svg" viewBox="0 0 15.94 15.94"><defs><style>.cls-1{fill:#d9c6de;fill-rule:evenodd;}</style></defs><g id="Layer_2" data-name="Layer 2"><g id="OBJECTS"><path class="cls-1" d="M5.73,7.22a4.24,4.24,0,0,0,1,1.46l.09.09.53.5a5.4,5.4,0,0,0,1.86,1c.55,0,.86-1.18,1.31-1.18a2,2,0,0,1,.64.23c.21.1.39.17.6.28l.87.43c.16.1.16.16.16.37a1.79,1.79,0,0,1-.63,1.45c-1.18.91-2.27.56-3.55.05A6.8,6.8,0,0,1,6.9,11a6.74,6.74,0,0,1-.71-.56c-.09-.09-.15-.12-.24-.21C5,9.27,3.36,7.4,3.36,6a2.53,2.53,0,0,1,.5-1.74,1.31,1.31,0,0,1,1.23-.61c.43.06.43,0,.61.32.09.2.19.45.28.66l.41,1a.83.83,0,0,1,.12.44c0,.37-.78.89-.78,1.15ZM0,8A6,6,0,0,0,.16,9.58a8.06,8.06,0,0,0,1,2.6c.42.63.39.22-.18,1.94A15,15,0,0,0,.53,15.6l2.67-.85c.54-.18.38-.09.81.14a6.73,6.73,0,0,0,.76.38,7.64,7.64,0,0,0,3.42.67,7.69,7.69,0,0,0,3.13-.73,8,8,0,0,0,2.51-1.85l1-1.39a7.9,7.9,0,0,0,1.07-4.22,7.69,7.69,0,0,0-.73-3.13,7.92,7.92,0,0,0-1.13-1.77l-.24-.26A7.83,7.83,0,0,0,8.19,0,7.65,7.65,0,0,0,4.62.73,8,8,0,0,0,2.72,2l-.27.23-.12.13A8.41,8.41,0,0,0,1.07,4,7.74,7.74,0,0,0,0,7.75V8Z"/></g></g></svg>