<svg xmlns="http://www.w3.org/2000/svg" viewBox="0 0 15.94 12.96"><defs><style>.cls-1{fill:#d9c6de;fill-rule:evenodd;}</style></defs><g id="Layer_2" data-name="Layer 2"><g id="OBJECTS"><path class="cls-1" d="M15.91,1.57a2.3,2.3,0,0,0-.42.14A6.73,6.73,0,0,1,14.13,2,3.71,3.71,0,0,0,15,1.29a3.27,3.27,0,0,0,.55-1A3.07,3.07,0,0,0,15,.5l-.5.22a8.83,8.83,0,0,1-1.1.32,3.2,3.2,0,0,0-1.72-1A3.15,3.15,0,0,0,8.88.83a3.11,3.11,0,0,0-.76,1,3.54,3.54,0,0,0-.36,1.63A4.55,4.55,0,0,0,7.84,4,13.4,13.4,0,0,1,5.7,3.65a8.22,8.22,0,0,1-1-.33c-.31-.13-.58-.27-.86-.41a9.7,9.7,0,0,1-2-1.47L1.7,1.27C1.56,1.13,1.21.68,1.09.6A3.41,3.41,0,0,0,.77,3.13,3.55,3.55,0,0,0,2.05,5a3.56,3.56,0,0,1-1.43-.4A3.33,3.33,0,0,0,2.15,7.38a3.42,3.42,0,0,0,.75.35l.25.09h0c-.14,0-.36.07-.68.09a3.88,3.88,0,0,1-.72-.06,3.35,3.35,0,0,0,2.4,2.21,3.64,3.64,0,0,0,.59.09,5.8,5.8,0,0,1-2,1.06,6.34,6.34,0,0,1-2,.31c-.3,0-.47,0-.75,0l.11.07a8.76,8.76,0,0,0,2,.95,9.9,9.9,0,0,0,5.58.08,8.4,8.4,0,0,0,1.16-.43c.2-.09.37-.16.55-.26a8.84,8.84,0,0,0,2.26-1.73,9.91,9.91,0,0,0,2.55-5.41,12.81,12.81,0,0,0,.07-1.55,6.06,6.06,0,0,0,.88-.74c.09-.09.11-.14.18-.22A3.64,3.64,0,0,0,15.91,1.57Z"/><polygon class="cls-1" points="15.91 1.57 15.94 1.57 15.91 1.53 15.91 1.57"/></g></g></svg>